<svg id="logo_" data-name="logo " xmlns="http://www.w3.org/2000/svg" width="230" height="37" viewBox="0 0 230 37">
  <defs>
    <style>
      .cls-1 {
        fill: #00978c;
      }

      .cls-1, .cls-2, .cls-3 {
        fill-rule: evenodd;
      }

      .cls-3 {
        fill: #df4518;
      }
    </style>
  </defs>
  <path id="形状_20" data-name="形状 20" class="cls-1" d="M170.018,25.874l-3.671,18.563h10.782l-0.8,4.068H161l4.471-22.631h4.549ZM195.8,33.889a8.881,8.881,0,0,1,.8,6.279,12.2,12.2,0,0,1-3.288,6.3,8.966,8.966,0,0,1-6.711,2.617q-4.15,0-5.668-2.617a8.813,8.813,0,0,1-.787-6.3,12.253,12.253,0,0,1,3.281-6.279,8.915,8.915,0,0,1,6.717-2.656q4.15,0,5.66,2.656m-6.418,1.044a4.069,4.069,0,0,0-3.108,1.359,7.832,7.832,0,0,0-1.761,3.877,5.926,5.926,0,0,0,.226,3.884,2.653,2.653,0,0,0,2.571,1.366,4.056,4.056,0,0,0,3.108-1.366,7.876,7.876,0,0,0,1.762-3.884,5.893,5.893,0,0,0-.227-3.877,2.657,2.657,0,0,0-2.571-1.359M210.4,38.546a4.4,4.4,0,0,0-.039-2.335c-0.848-2.072-3.936-1.532-5.275.687a7.668,7.668,0,0,0-.913,2.55L202.391,48.5H198.2l3.3-16.7,3.576,2.441c3.795-4.392,11.289-3.72,9.917,3L212.761,48.5h-4.313Zm86,0a4.4,4.4,0,0,0-.038-2.335c-0.848-2.072-3.936-1.532-5.275.687a7.69,7.69,0,0,0-.914,2.55L288.4,48.5H284.2l3.3-16.7,3.576,2.441c3.8-4.392,11.289-3.72,9.917,3L298.764,48.5h-4.313Zm-80.665,15L216.4,49.67c3.03,4.307,7.91,3.557,9.818.785a9.517,9.517,0,0,0,1.173-3.409l0.215-1.075a7.007,7.007,0,0,1-1.629,1.612,5.978,5.978,0,0,1-3.464,1,4.9,4.9,0,0,1-4.505-2.266q-1.4-2.264-.633-6.133a12.809,12.809,0,0,1,3.023-6.273,7.239,7.239,0,0,1,5.573-2.541,4.734,4.734,0,0,1,2.026.385,3.9,3.9,0,0,1,2.011,2.425l0.471-2.41h4.091l-3.142,15.875a12.555,12.555,0,0,1-2,4.882c-2.368,3.449-9.006,5.224-13.682,1.018M221.719,40.2a6.25,6.25,0,0,0-.027,2.6,2.418,2.418,0,0,0,2.644,2.118,3.934,3.934,0,0,0,2.724-1.159,6.69,6.69,0,0,0,1.748-3.693,5.28,5.28,0,0,0-.246-3.623,2.5,2.5,0,0,0-2.342-1.243,3.891,3.891,0,0,0-3.487,2.165,9.3,9.3,0,0,0-1.014,2.84m46-5.221a3.628,3.628,0,0,0-2.762,1.16,6.593,6.593,0,0,0-1.521,3.308L261.648,48.5h-4.2l4.457-22.554H266.1l-1.586,8a6.954,6.954,0,0,1,2.52-2.034,6.563,6.563,0,0,1,2.647-.575,5.928,5.928,0,0,1,2.6.537,3.616,3.616,0,0,1,1.68,1.644,3.784,3.784,0,0,1,.433,1.925,24.871,24.871,0,0,1-.487,3.233L271.972,48.5h-4.3l2-10.179a4.384,4.384,0,0,0,0-2.18,1.768,1.768,0,0,0-1.957-1.167m11.6-3.208h4.269l-3.3,16.734h-4.268Zm1.2-6.035h4.269l-0.8,4.039h-4.269Zm37.488,17.8L317.073,47.1a10.371,10.371,0,0,1-6.4,1.954c-3.709,0-8.461-1.622-7-8.751a11.846,11.846,0,0,1,3.433-6.665,8.649,8.649,0,0,1,5.96-2.319,7.247,7.247,0,0,1,3.469.784A4.775,4.775,0,0,1,318.7,34.58a7.325,7.325,0,0,1,.54,3.454,22.04,22.04,0,0,1-.509,3.318H307.711c-0.722,3.185,2.188,4.167,3.753,4.161a13.28,13.28,0,0,0,6.541-1.979M312.433,34.8a3.641,3.641,0,0,0-2.536,1.08,6.068,6.068,0,0,0-1.511,2.579h6.543c0.16-1.156-.049-3.614-2.5-3.66" transform="translate(-161 -19)"/>
  <path id="形状_22" data-name="形状 22" class="cls-2" d="M372.116,33.063h5.962l0.223-2.577h-3.462l1.99-3.882h-3.415l-1.991,3.882h-1.787l-1.32-3.882H364.9l1.321,3.882h-3.4L362.6,33.063h5.964l-0.179,2.068h-5.5l-0.222,2.577h5.5l-0.978,11.333h3.553l0.976-11.333h5.5l0.223-2.577h-5.5ZM361.454,49.041H364.7l2.114-9.674h-3.249Zm11.354-9.674,0.445,9.674H376.5l-0.445-9.674h-3.248Zm5.626-16.118h-5.727l-0.3-2.258H369l0.3,2.258h-5.354l-0.222,2.576h14.5ZM390.79,23.93l0.222-2.576-11.02,1.529L379.9,23.93l-2.166,25.112h3.584l1.5-17.441h2.595l-1.5,17.441H387.5L389,31.6h1.126l0.221-2.578h-7.3l0.351-4.067ZM337.4,46.463h-3.443l0.8-9.555h8.936l0.942-10.924a1.544,1.544,0,0,0-1.426-1.812h-2.92l-0.416-3.181h-3.415l0.417,3.181H332.24l-2.081,24.869h9.033l0.222-2.578H337.4m-2.427-12.132,0.217-2.607h5.367l-0.226,2.607h-5.358Zm5.967-7.065-0.162,1.88h-5.371l0.2-2.4h4.927a0.44,0.44,0,0,1,.406.518M337.5,38.58l2.8,10.461h3.4L340.9,38.58h-3.4Zm19.819-15.927-8.354-.011v0.012h-2.473l-2.276,26.387H347.8l0.776-9h5.36l-0.776,9h3.584L358.851,24.6a1.661,1.661,0,0,0-1.532-1.95m-2.19,3.543L354.8,30.051h-5.36l0.417-4.831h4.508a0.831,0.831,0,0,1,.767.976M348.8,37.462l0.416-4.833h5.361l-0.418,4.833H348.8Z" transform="translate(-161 -19)"/>
  <path id="形状_21" data-name="形状 21" class="cls-3" d="M254.081,33.954c-2.172-1.508-4.546.573-5.581,1.834a2.724,2.724,0,0,1-4.738-.39c-1.119-1.85-.684-5.515,2.491-7.712a6.776,6.776,0,0,1,1.655-.727,4.279,4.279,0,0,1,4.369,1.664l6.113-5.409-3.863.5c-0.083.006-.156,0.011-0.226,0.013a1.484,1.484,0,0,0-1.4-1.789c-4.159.263-10.618-2.925-10.618-2.925,2.8,2.648,7.037,3.994,9.645,4.611a36.34,36.34,0,0,0-4.12.2,11.121,11.121,0,0,0-2.017.6l0-.006a9.549,9.549,0,0,0-6.164,7.161c-0.543,2.769.785,7.715,4.819,7.547,3.285-.136,3-3.3,5.928-3.4,1.756-.056,3.024,2.092,2.6,4.155-0.389,1.884-1.809,5.607-7.556,6.353a10.054,10.054,0,0,1-8.761-2.764c2.2,5.579,9.662,6.864,13.362,5.408a10.615,10.615,0,0,0,5.8-5.848c0.888-2.353,1.264-7-1.729-9.08" transform="translate(-161 -19)"/>
</svg>
